# xmcd
#
# Track frame offsets: 
#        150
#        19433
#        37899
#        59266
#        81489
#        99984
#        112301
#        131862
#        148352
#        164062
#
# Disc length: 2411 seconds
#
# Revision: 1
# Processed by: cddbd v1.5.2PL0 Copyright (c) Steve Scherf et al.
# Submitted via: ExactAudioCopy v0.99pb5
#
DISCID=9a09690a
DTITLE=William Clarke - One More Again!
DYEAR=2008
DGENRE=Blues
TTITLE0=Untitled Instrumental
TTITLE1=I Got My Bags Packed
TTITLE2=Five Card Hand (alt. take)
TTITLE3=Home Is Where the Heart Is (slow)
TTITLE4=Leter From Home (alt. take)
TTITLE5=Educated Fool (alt. take)
TTITLE6=When I'm With You Baby
TTITLE7=Untitled Instrumental
TTITLE8=That Ain't the Way to Do It
TTITLE9=Home Is Where the Heart Is (fast)
EXTD=YEAR: 2008
EXTT0=
EXTT1=
EXTT2=
EXTT3=
EXTT4=
EXTT5=
EXTT6=
EXTT7=
EXTT8=
EXTT9=
PLAYORDER=
